<?xml version="1.0" encoding="UTF-8"?>
<svg id="Layer_2" data-name="Layer 2" xmlns="http://www.w3.org/2000/svg" viewBox="0 0 35 25.81">
  <g id="Layer_1-2" data-name="Layer 1">
    <g>
      <path d="M0,7.3c1.45.88,2.9,1.75,4.35,2.63,3.96,2.42,7.92,4.83,11.88,7.26.86.53,1.66.52,2.52,0,5.29-3.24,10.58-6.45,15.87-9.68.1-.06.21-.12.37-.22v.4c0,4.26-.04,8.52.01,12.77.03,2.78-2.12,5.35-5.35,5.35-6.5-.01-13,0-19.5,0-1.63,0-3.26,0-4.88,0-2.55-.02-4.56-1.63-5.15-4.1C.07,21.55.04,21.39,0,21.24c0-4.65,0-9.29,0-13.94Z"/>
      <path d="M17.49,0c4.07,0,8.13,0,12.2,0,2.4,0,4.38,1.47,5.05,3.7.09.28.03.41-.22.56-5.58,3.4-11.15,6.8-16.71,10.21-.21.13-.36.13-.58,0C11.64,11.06,6.04,7.65.45,4.25c-.26-.16-.27-.3-.19-.54C.91,1.48,2.9,0,5.3,0c4.07,0,8.13,0,12.2,0Z"/>
    </g>
  </g>
</svg>